<svg width="168" height="68" viewBox="0 0 168 68" fill="none" xmlns="http://www.w3.org/2000/svg">
<g clip-path="url(#clip0_1510_5)">
<path d="M33.9986 0.0025959L-0.00195312 34.0032L33.9986 68.0038L67.9992 34.0032L33.9986 0.0025959Z" fill="#009FFF"/>
<path d="M58.0423 34C58.0423 35.1498 57.9601 36.2995 57.7959 37.4082L61.2041 40.8164L68 34.0205L58.0423 34Z" fill="url(#paint0_linear_1510_5)"/>
<path d="M54.0596 47.2633L54.4086 47.6123L61.2045 40.8164L57.7963 37.4082C57.3035 41.0012 55.9895 44.3478 54.0596 47.2633Z" fill="url(#paint1_linear_1510_5)"/>
<path d="M47.2637 54.0592L47.6127 54.4082L54.4086 47.6123L54.0596 47.2633C52.2733 49.9529 49.9533 52.273 47.2637 54.0592Z" fill="url(#paint2_linear_1510_5)"/>
<path d="M37.4082 57.8164L40.8164 61.2246L47.6123 54.4287L47.2633 54.0797C44.3478 55.9891 41.0012 57.3031 37.4082 57.8164Z" fill="url(#paint3_linear_1510_5)"/>
<path d="M34 58.0423C20.7162 58.0423 9.95773 47.2838 9.95773 34H0L34 68L40.7959 61.2041L37.3877 57.7959C36.2995 57.9601 35.1498 58.0423 34 58.0423Z" fill="url(#paint4_linear_1510_5)"/>
<path d="M9.95773 34C9.95773 32.8503 10.0399 31.7005 10.2041 30.5918L6.79589 27.1836L0 34H9.95773Z" fill="url(#paint5_linear_1510_5)"/>
<path d="M13.9408 20.7367L13.5918 20.3877L6.7959 27.1836L10.2041 30.5918C10.7174 26.9988 12.0109 23.6522 13.9408 20.7367Z" fill="url(#paint6_linear_1510_5)"/>
<path d="M20.7367 13.9408L20.3877 13.5918L13.5918 20.4082L13.9408 20.7573C15.7271 18.0471 18.0471 15.7271 20.7367 13.9408Z" fill="url(#paint7_linear_1510_5)"/>
<path d="M30.5918 10.2041L27.1836 6.7959L20.4082 13.5918L20.7572 13.9408C23.6522 12.0109 26.9988 10.7174 30.5918 10.2041Z" fill="url(#paint8_linear_1510_5)"/>
<path d="M34 9.95773C47.2838 9.95773 58.0423 20.7162 58.0423 34H68L34 0L27.2041 6.79589L30.5918 10.2041C31.721 10.0399 32.8502 9.95773 34 9.95773Z" fill="url(#paint9_linear_1510_5)"/>
<path d="M57.8164 37.4082C57.9806 36.2995 58.0628 35.1703 58.0628 34H54.4287L57.8164 37.4082Z" fill="#8FC31F"/>
<path d="M54.4082 34H40.8164L54.0797 47.2633C56.0096 44.3478 57.3031 41.0012 57.8164 37.4082L54.4082 34Z" fill="url(#paint10_linear_1510_5)"/>
<path d="M40.7959 34H27.2041L47.2633 54.0592C49.9529 52.2729 52.2729 49.9529 54.0592 47.2633L40.7959 34Z" fill="url(#paint11_linear_1510_5)"/>
<path d="M27.2041 34H13.5918L37.3877 57.7959C41.0012 57.2826 44.3478 55.9686 47.2428 54.0592L27.2041 34Z" fill="url(#paint12_linear_1510_5)"/>
<path d="M13.5921 34H9.95801C9.95801 47.2838 20.7165 58.0423 34.0003 58.0423C35.15 58.0423 36.2998 57.9601 37.4085 57.7959L13.5921 34Z" fill="url(#paint13_linear_1510_5)"/>
<path d="M10.2044 30.5918C10.0401 31.7005 9.95801 32.8297 9.95801 34H13.5921L10.2044 30.5918Z" fill="#009FFF"/>
<path d="M13.5918 34H27.1836L13.9408 20.7367C12.0109 23.6522 10.7174 26.9988 10.2041 30.5918L13.5918 34Z" fill="url(#paint14_linear_1510_5)"/>
<path d="M27.2047 34H40.7965L20.7373 13.9408C18.0477 15.727 15.7276 18.0471 13.9414 20.7367L27.2047 34Z" fill="url(#paint15_linear_1510_5)"/>
<path d="M40.7965 34H54.4088L30.5924 10.2041C26.9789 10.7174 23.6322 12.0314 20.7373 13.9408L40.7965 34Z" fill="url(#paint16_linear_1510_5)"/>
<path d="M34 9.95776C32.8503 9.95776 31.7005 10.0399 30.5918 10.2041L54.4082 34H58.0423C58.0423 20.7162 47.2838 9.95776 34 9.95776Z" fill="url(#paint17_linear_1510_5)"/>
<g style="mix-blend-mode:overlay">
<path d="M34.0003 58.0423C47.2785 58.0423 58.0425 47.2782 58.0425 34C58.0425 20.7219 47.2785 9.95776 34.0003 9.95776C20.7221 9.95776 9.95801 20.7219 9.95801 34C9.95801 47.2782 20.7221 58.0423 34.0003 58.0423Z" fill="url(#paint18_radial_1510_5)"/>
</g>
</g>
<path d="M98.8896 31.2596H102.631L105.444 15.4374H101.702L98.8896 31.2596Z" fill="black"/>
<path d="M117.365 25.8826H117.314L112.953 15.4374H108.773L105.96 31.2596H109.65L111.43 20.7629H111.508L115.869 31.2596H120.023L122.836 15.4374H119.146L117.365 25.8826Z" fill="black"/>
<path d="M129.622 20.094C130.112 19.528 130.68 19.0906 131.351 18.7562C132.022 18.4217 132.744 18.2673 133.518 18.2673C134.318 18.2673 134.963 18.4217 135.479 18.7047C135.995 18.9877 136.408 19.3479 136.692 19.7852L139.402 17.3412C138.808 16.5694 138.008 15.9776 137.002 15.5917C135.97 15.2058 134.834 15 133.57 15C132.228 15 130.989 15.2573 129.828 15.7718C128.693 16.2864 127.687 16.981 126.835 17.8557C125.983 18.7562 125.338 19.7852 124.848 20.9687C124.384 22.1521 124.151 23.4385 124.151 24.802C124.151 25.8568 124.332 26.8087 124.693 27.6577C125.055 28.5067 125.571 29.2271 126.241 29.8188C126.912 30.4105 127.687 30.8736 128.641 31.1824C129.57 31.4911 130.602 31.6712 131.738 31.6712C132.822 31.6712 133.854 31.5425 134.86 31.2853C135.866 31.028 136.77 30.6935 137.595 30.2819L139.066 21.9206H132.538L131.97 24.9821H135.066L134.55 27.9665C134.215 28.1208 133.854 28.2495 133.492 28.3009C133.105 28.3781 132.692 28.4038 132.254 28.4296C131.583 28.4296 130.989 28.3266 130.448 28.1208C129.931 27.915 129.493 27.632 129.132 27.2718C128.77 26.9117 128.512 26.4743 128.332 25.9855C128.151 25.4967 128.074 24.9564 128.074 24.3647C128.074 23.5414 128.203 22.7696 128.486 22.0235C128.744 21.3031 129.132 20.66 129.622 20.094Z" fill="black"/>
<path d="M147.014 15.4374H143.272L140.485 31.2596H150.446L151.013 28.0179H144.795L147.014 15.4374Z" fill="black"/>
<path d="M163.27 15.4374L157.077 26.7573H157L155.761 15.4374H151.787L154.213 31.2596H158.135L167.605 15.4374H163.27Z" fill="black"/>
<path d="M97.5217 21.972C97.5733 19.142 95.9735 16.3892 93.0318 15.4887C92.1029 15.2057 91.0707 15.0256 89.9354 15.0256C88.5935 15.0256 87.355 15.2829 86.2196 15.7717C85.0842 16.2605 84.1037 16.9552 83.2521 17.8042C82.4264 18.6532 81.7813 19.6822 81.3168 20.84C80.8524 21.9977 80.6201 23.2326 80.6201 24.5447C80.6201 25.5738 80.8007 26.4999 81.162 27.3232C81.5233 28.1465 82.0393 28.8668 82.7102 29.4328C83.3811 30.0245 84.1811 30.4619 85.11 30.7706C85.8841 31.0279 86.7099 31.1823 87.613 31.2337V27.9921C87.3033 27.9407 87.0195 27.8635 86.7357 27.7348C86.2454 27.529 85.8325 27.246 85.5229 26.8858C85.1874 26.5257 84.9552 26.114 84.7746 25.6509C84.5939 25.1878 84.5165 24.6733 84.5165 24.133C84.5165 23.4127 84.6455 22.6923 84.8778 21.9977C85.1358 21.3031 85.4713 20.6856 85.9357 20.1196C86.4002 19.5793 86.9421 19.142 87.5872 18.8075C88.2323 18.4731 88.9548 18.3187 89.7547 18.3187C90.374 18.3187 90.9417 18.3959 91.4062 18.6274C92.9286 19.3221 93.7543 20.7371 93.6253 22.7695C93.5479 23.7729 93.3157 25.3165 92.1803 26.6543C92.1029 26.7315 92.0513 26.8087 91.9739 26.8858L89.6515 24.5704V31.2595H96.3605L94.0382 28.944C94.3994 28.7125 94.7607 28.4295 95.122 28.0693C97.2637 26.114 97.4959 22.9239 97.5217 21.972Z" fill="black"/>
<path d="M87.4843 39.2606H91.3549V38.3087H87.4843V37.7427H91.7936V36.7908H87.4843V36.2762H86.3232V36.7908H82.0397V37.7427H86.3232V38.3087H82.4526V39.2606H86.3232V39.8523H81.7559V40.8042H92.0516V39.8523H87.4843V39.2606Z" fill="black"/>
<path d="M82.7363 41.3188V46.8245H83.8975V45.3323H89.9356V45.8725H88.7745V46.8245H91.0968V46.773V45.8725V41.3188H82.7363ZM89.9356 44.3804H83.8975V43.8144H89.9356V44.3804ZM89.9356 42.8625H83.8975V42.245H89.9356V42.8625Z" fill="black"/>
<path d="M127.764 38.9777H126.422V38.1544H125.261V38.9777H123.171V38.1544H122.01V38.9777H120.72V39.9296H127.764V38.9777Z" fill="black"/>
<path d="M127.583 36.9196H124.797V36.3021H123.635V36.9196H120.849V37.8715H127.583V36.9196Z" fill="black"/>
<path d="M119.456 36.3535H118.294V38.952H117.391V40.1097H118.294V44.9721C117.804 44.9978 117.417 45.0236 117.288 45.0493V46.1813C117.469 46.1813 118.32 46.1298 120.359 45.9497V44.8177C120.023 44.8435 119.739 44.8692 119.456 44.8949V40.1097H120.359V38.952H119.456V36.3535Z" fill="black"/>
<path d="M125.958 45.7181V44.3803H127.429H127.455V40.4183H127.429H121.004H120.978V44.3546H121.004H122.578C122.32 44.8177 121.726 45.4866 120.539 45.8725L120.875 46.9016C122.861 46.2584 123.558 44.9463 123.765 44.3546H124.874V46.7729H127.842V45.6924H125.958V45.7181ZM122.061 41.3702H126.345V41.9877H122.061V41.3702ZM122.061 43.4284V42.811H126.345V43.4284H122.061Z" fill="black"/>
<path d="M104.386 40.3669H103.715V36.6108V36.5336H97.8317V37.5884H102.554V38.4888H98.1155V39.5179H102.554V40.3669H97.5479V41.4475H104.386V40.3669Z" fill="black"/>
<path d="M96.9542 36.5336L95.8962 36.0448C95.8962 36.0705 94.8641 38.2316 93.29 39.9039L94.1416 40.7014C95.8446 38.9005 96.9026 36.6365 96.9542 36.5336Z" fill="black"/>
<path d="M98.3562 41.7378L97.5508 42.4987L98.8464 43.862L99.6518 43.1011L98.3562 41.7378Z" fill="black"/>
<path d="M102.993 44.0716C102.915 43.9944 102.864 43.943 102.812 43.8658C103.638 43.1454 104.257 42.5023 104.283 42.4765L103.483 41.7047C103.483 41.7047 102.864 42.3479 102.09 43.0168C101.677 42.4508 101.625 42.0649 101.599 41.9877H101.316H101.264H100.438V42.7595V43.1454C100.258 43.3512 100.051 43.5313 99.8448 43.7114C99.5867 43.9687 99.3287 44.2002 99.0449 44.4318C98.503 44.8949 97.9353 45.3322 97.3418 45.7181L98.0127 46.6958C98.632 46.2584 99.2255 45.7696 99.7674 45.2551C99.9996 45.0492 100.206 44.8434 100.412 44.6376V45.7439H99.6125V46.773H100.412H101.367H101.599V44.0973C101.78 44.3289 101.961 44.5347 102.141 44.7405C102.761 45.4351 103.432 46.104 104.154 46.67L104.877 45.7439C104.206 45.2808 103.561 44.6891 102.993 44.0716Z" fill="black"/>
<path d="M93.4453 46.387C93.6517 46.3613 94.9419 46.2841 97.1095 46.104V44.972C95.0968 45.1521 93.8066 45.2293 93.4453 45.255V46.387Z" fill="black"/>
<path d="M95.148 42.8625C96.5156 41.2674 97.4187 39.518 97.4703 39.4151L96.464 38.8234C96.4382 38.8491 95.1738 41.2674 93.4707 42.9397V44.1232C93.6771 44.0974 94.9415 44.0202 97.1091 43.8402V42.7082C96.3349 42.7596 95.6898 42.8111 95.148 42.8625Z" fill="black"/>
<path d="M108.23 41.4991H109.417V40.3414H108.23V37.64H109.417V36.4823H105.83V37.64H107.069V40.3414H105.83V41.4991H107.069V45.1523C106.424 45.2038 105.985 45.2295 105.805 45.2552V46.3872C105.96 46.3872 107.353 46.2843 109.572 46.1042V44.9722C109.082 45.0237 108.643 45.0494 108.23 45.0752V41.4991Z" fill="black"/>
<path d="M113.701 39.8782L115.998 43.8145L117.004 43.2485L114.708 39.2865L113.701 39.8782Z" fill="black"/>
<path d="M113.365 37.5628H116.255V36.4823H109.908V37.5628H112.178C111.92 38.6948 111.146 41.1904 109.211 42.9141L109.985 43.7888C111.043 42.8626 111.766 41.7564 112.307 40.7273V46.8246H113.469V39.8783H112.669C113.056 38.9264 113.262 38.0517 113.365 37.5628Z" fill="black"/>
<defs>
<linearGradient id="paint0_linear_1510_5" x1="65.5167" y1="31.5134" x2="58.716" y2="38.3141" gradientUnits="userSpaceOnUse">
<stop stop-color="white"/>
<stop offset="0.9989" stop-color="#DCDDDD"/>
</linearGradient>
<linearGradient id="paint1_linear_1510_5" x1="59.5066" y1="39.1043" x2="52.706" y2="45.905" gradientUnits="userSpaceOnUse">
<stop stop-color="white"/>
<stop offset="0.9989" stop-color="#DCDDDD"/>
</linearGradient>
<linearGradient id="paint2_linear_1510_5" x1="54.2342" y1="47.4332" x2="47.4336" y2="54.2338" gradientUnits="userSpaceOnUse">
<stop stop-color="white"/>
<stop offset="0.9989" stop-color="#DCDDDD"/>
</linearGradient>
<linearGradient id="paint3_linear_1510_5" x1="45.905" y1="52.7055" x2="39.1043" y2="59.5062" gradientUnits="userSpaceOnUse">
<stop stop-color="white"/>
<stop offset="0.9989" stop-color="#DCDDDD"/>
</linearGradient>
<linearGradient id="paint4_linear_1510_5" x1="23.8023" y1="44.2042" x2="17.0017" y2="51.0049" gradientUnits="userSpaceOnUse">
<stop stop-color="white"/>
<stop offset="0.9989" stop-color="#DCDDDD"/>
</linearGradient>
<linearGradient id="paint5_linear_1510_5" x1="2.48984" y1="36.4931" x2="9.29051" y2="29.6925" gradientUnits="userSpaceOnUse">
<stop stop-color="white"/>
<stop offset="0.9984" stop-color="#DCDDDD"/>
</linearGradient>
<linearGradient id="paint6_linear_1510_5" x1="8.50036" y1="28.9023" x2="15.301" y2="22.1016" gradientUnits="userSpaceOnUse">
<stop stop-color="white"/>
<stop offset="0.9984" stop-color="#DCDDDD"/>
</linearGradient>
<linearGradient id="paint7_linear_1510_5" x1="13.7727" y1="20.5733" x2="20.5733" y2="13.7728" gradientUnits="userSpaceOnUse">
<stop stop-color="white"/>
<stop offset="0.9984" stop-color="#DCDDDD"/>
</linearGradient>
<linearGradient id="paint8_linear_1510_5" x1="22.1016" y1="15.301" x2="28.9022" y2="8.50035" gradientUnits="userSpaceOnUse">
<stop stop-color="white"/>
<stop offset="0.9984" stop-color="#DCDDDD"/>
</linearGradient>
<linearGradient id="paint9_linear_1510_5" x1="44.2042" y1="23.8023" x2="51.0049" y2="17.0017" gradientUnits="userSpaceOnUse">
<stop stop-color="white"/>
<stop offset="0.9984" stop-color="#DCDDDD"/>
</linearGradient>
<linearGradient id="paint10_linear_1510_5" x1="54.2338" y1="33.8318" x2="47.4331" y2="40.6325" gradientUnits="userSpaceOnUse">
<stop stop-color="white"/>
<stop offset="0.3367" stop-color="#D7EAB0"/>
<stop offset="0.9178" stop-color="#8FC31F"/>
</linearGradient>
<linearGradient id="paint11_linear_1510_5" x1="44.2036" y1="37.403" x2="37.403" y2="44.2037" gradientUnits="userSpaceOnUse">
<stop stop-color="white"/>
<stop offset="0.3367" stop-color="#D7EAB0"/>
<stop offset="0.9178" stop-color="#8FC31F"/>
</linearGradient>
<linearGradient id="paint12_linear_1510_5" x1="33.8319" y1="40.6325" x2="27.0312" y2="47.4332" gradientUnits="userSpaceOnUse">
<stop stop-color="white"/>
<stop offset="0.3367" stop-color="#D7EAB0"/>
<stop offset="0.9178" stop-color="#8FC31F"/>
</linearGradient>
<linearGradient id="paint13_linear_1510_5" x1="24.5927" y1="44.9944" x2="17.7921" y2="51.795" gradientUnits="userSpaceOnUse">
<stop stop-color="white"/>
<stop offset="0.3367" stop-color="#D7EAB0"/>
<stop offset="0.9178" stop-color="#8FC31F"/>
</linearGradient>
<linearGradient id="paint14_linear_1510_5" x1="13.7726" y1="34.1746" x2="20.5733" y2="27.374" gradientUnits="userSpaceOnUse">
<stop stop-color="white"/>
<stop offset="0.3241" stop-color="#B0E1FF"/>
<stop offset="1" stop-color="#009FFF"/>
</linearGradient>
<linearGradient id="paint15_linear_1510_5" x1="23.8034" y1="30.6035" x2="30.6041" y2="23.8028" gradientUnits="userSpaceOnUse">
<stop stop-color="white"/>
<stop offset="0.2972" stop-color="#B0E1FF"/>
<stop offset="0.9172" stop-color="#009FFF"/>
</linearGradient>
<linearGradient id="paint16_linear_1510_5" x1="34.1752" y1="27.374" x2="40.9758" y2="20.5734" gradientUnits="userSpaceOnUse">
<stop stop-color="white"/>
<stop offset="0.2974" stop-color="#B0E1FF"/>
<stop offset="0.9178" stop-color="#009FFF"/>
</linearGradient>
<linearGradient id="paint17_linear_1510_5" x1="43.414" y1="23.0121" x2="50.2147" y2="16.2115" gradientUnits="userSpaceOnUse">
<stop stop-color="white"/>
<stop offset="0.2975" stop-color="#B0E1FF"/>
<stop offset="0.9179" stop-color="#009FFF"/>
</linearGradient>
<radialGradient id="paint18_radial_1510_5" cx="0" cy="0" r="1" gradientUnits="userSpaceOnUse" gradientTransform="translate(31.3127 26.1994) scale(25.4957)">
<stop stop-color="white"/>
<stop offset="0.7858" stop-color="#006934"/>
</radialGradient>
<clipPath id="clip0_1510_5">
<rect width="68" height="68" fill="white"/>
</clipPath>
</defs>
</svg>
